<svg version="1" xmlns="http://www.w3.org/2000/svg" width="1016" height="1016" viewBox="0 0 762.000000 762.000000"><path d="M0 381v381h762V0H0v381zM726 36.1c.3.4.5 155.9.5 345.6v344.8H381.3c-189.9 0-345.4-.2-345.4-.5-.3-.9-.6-689.5-.3-690 .4-.9 689.8-.7 690.4.1z"/><path d="M71.5 246.2v9.3l8.5.2c33.5.6 36.1 2.2 64.9 39.3 7.5 9.6 14 18 14.6 18.7.5.7 3.1 4 5.8 7.5 2.6 3.5 12.3 16.2 21.6 28.3 9.3 12.1 16.6 22.5 16.2 23.1-.3.6-1.8 2.7-3.3 4.5-1.5 1.9-7.3 9.2-12.8 16.4-22.7 29.2-38.6 49-45.4 56.2-12.3 13.3-29.2 23.6-45.5 27.8-8.5 2.2-16.2 3.3-23.2 3.4l-4.6.1.1 9.2.1 9.3 12-.5c17-.6 51.4-.5 75.8.3l20.7.6v-9.4c0-5.7-.4-9.5-1-9.5h-1.5c-.3 0-2.7-1.1-5.4-2.5-9.9-5-12.3-15.1-6.4-27.5 2.8-6.1 14.6-23.1 16.5-23.8.4-.2.8-1 .8-1.7s.4-1.5.8-1.7c.4-.2 7.6-8.4 15.8-18.3 8.3-9.9 15.8-18.6 16.7-19.3 1.3-1.1 1.8-.9 3.4 1.5.9 1.5 2 3 2.3 3.3.4.3 7.6 9.7 16.1 21 8.5 11.3 15.7 20.7 16 21 2.4 2.2 19.1 25.5 21.1 29.6 3.6 7.1-3 15-15 17.8l-5.7 1.3v8.9l.1 8.9 22.4-.5c33.2-.6 74.7-.5 89.3.2l12.7.7.1-5.2c.2-5.3-.1-13.1-.4-13.3-.1-.1-6.5-.4-14.2-.7-13.6-.6-22.8-2.2-28.3-5.1-6-3.1-13-10.8-30.8-33.9-10.4-13.3-19.1-24.4-19.4-24.7-.3-.3-1.7-2.1-3-4s-2.7-3.7-3-4c-.3-.3-8.2-10.4-17.5-22.5s-18.4-23.8-20.2-26.1c-3.1-3.9-3.2-4.1-1.5-6 .9-1 7.7-9.6 15.1-18.9 7.3-9.4 14.8-18.8 16.6-21 1.8-2.2 7.1-8.5 11.6-14 17.9-21.5 29.1-30.7 45.7-37.5 9.8-4 23.1-6.8 33-6.9l5.2-.1v-19l-15.7.7c-19.4.9-49.8.8-74.3-.1l-18.6-.6.2 8.7c.1 4.9.2 9.1.3 9.4 0 .4 2 1.2 4.4 1.8 12 3 16.4 18.3 8.9 31.3-3.4 5.9-42.3 54.9-43.3 54.6-.4-.2-3.3-3.7-6.5-7.8s-13.4-17.4-22.8-29.5c-9.3-12.1-18.5-23.9-20.3-26.3-7.5-9.8-1.2-20.5 13.5-22.8l4.2-.7.1-5.1c0-2.8.2-7 .2-9.4l.2-4.4-26.5.8c-32.9.9-64 .9-83-.1l-14.6-.7.1 9.4zM395.2 246.2l.3 9.3 7.5.2c24.7.6 32.8 3.8 38.9 15.8 1.5 3.1 77.3 186.8 91.3 221.3l2.9 7.3-6.7 15.7c-3.7 8.6-8.8 21-11.5 27.4-14.1 34.2-25.5 51.4-40.4 60.7-8.9 5.6-13.2 6.9-24.4 7.5-7.6.4-13.9-.8-20.6-3.9-5.2-2.4-9.8-6.2-8.5-7 .5-.3 1-.4 1-.1 0 1.2 11.6-4.6 14.2-7.1 8.8-8.5 9.1-26.9.5-36.1-8.8-9.5-26.9-10-36.8-1-9.1 8.1-10.3 24.7-2.8 39.6 5.7 11.4 18.3 21.8 32.1 26.3 10.1 3.3 29.2 3.3 38.2.1 10.9-4 18.7-9.2 28.2-18.6 15.5-15.6 22.7-28.3 39.9-70.1 5.8-14.3 11.2-27.4 11.9-29 .8-1.7 9.6-23 19.6-47.5 10-24.5 19-46.3 20-48.5 1-2.2 6.8-16.4 13-31.5 6.2-15.1 11.8-28.9 12.5-30.5.7-1.7 6.3-15.2 12.5-30 6.1-14.9 12.5-29.5 14.3-32.5 4.5-7.5 15.1-17.9 22.5-21.8 3.4-1.8 6.2-3.1 6.2-2.8 0 .3 1.5-.1 3.4-.9 3.3-1.4 10.4-2.7 16.1-2.9l3-.1v-18l-7 .2c-23.7.6-51.8.6-70.2-.1l-21.3-.8-.1 2.6v15c.1.8 1.9 1.6 5.1 2 12 1.6 20.3 8.4 22.6 18.2.3 1.6.6 5.4.6 8.4-.1 4.7-1.9 10.1-13.2 37.5-7.2 17.6-13.5 32.9-14 34-.5 1.1-4.5 11-9 22s-8.5 20.9-9 22c-1.1 2.2-12.6 30.3-16.8 40.7-1.4 3.7-3 6.4-3.4 6-.4-.4-4.2-9.1-8.4-19.2-4.1-10.2-9.5-23.2-11.9-29-2.4-5.8-9.8-23.8-16.4-40-6.7-16.2-12.6-30.4-13.1-31.5-5-10.5-20.4-49.9-20.7-53.2-1.3-10.6 8-15.8 30.2-16.7l3-.1.3-9.3.3-9.4-26.8.8c-33.9.9-61.2.9-82.6 0l-16.8-.7.3 9.3z"/></svg>