<?xml version="1.0" encoding="UTF-8" standalone="no"?>
<svg
   xmlns:dc="http://purl.org/dc/elements/1.1/"
   xmlns:cc="http://creativecommons.org/ns#"
   xmlns:rdf="http://www.w3.org/1999/02/22-rdf-syntax-ns#"
   xmlns:svg="http://www.w3.org/2000/svg"
   xmlns="http://www.w3.org/2000/svg"
   xmlns:xlink="http://www.w3.org/1999/xlink"
   xmlns:sodipodi="http://sodipodi.sourceforge.net/DTD/sodipodi-0.dtd"
   xmlns:inkscape="http://www.inkscape.org/namespaces/inkscape"
   width="210mm"
   height="297mm"
   viewBox="0 0 210 297"
   version="1.1"
   id="svg1071"
   sodipodi:docname="polynomial_ring.svg"
   inkscape:version="1.0.1 (1.0.1+r74)">
  <defs
     id="defs1065">
    <g
       id="g2054">
      <symbol
         overflow="visible"
         id="symbol97">
        <path
           style="stroke:none;"
           d=""
           id="path1787" />
      </symbol>
      <symbol
         overflow="visible"
         id="symbol8924">
        <path
           style="stroke:none;"
           d="M 5.9375 -6.46875 C 6.03125 -6.59375 6.03125 -6.625 6.03125 -6.65625 C 6.03125 -6.828125 5.875 -6.828125 5.703125 -6.828125 L 1.140625 -6.828125 C 0.8125 -6.828125 0.8125 -6.796875 0.78125 -6.546875 L 0.640625 -5.1875 L 0.625 -5.0625 C 0.625 -4.921875 0.734375 -4.875 0.796875 -4.875 C 0.890625 -4.875 0.953125 -4.9375 0.96875 -5.03125 C 1 -5.265625 1.09375 -5.703125 1.703125 -6.078125 C 2.265625 -6.453125 2.96875 -6.484375 3.3125 -6.484375 L 4.109375 -6.484375 L 0.375 -0.359375 C 0.28125 -0.234375 0.28125 -0.203125 0.28125 -0.171875 C 0.28125 0 0.4375 0 0.625 0 L 5.734375 0 C 6.03125 0 6.03125 -0.015625 6.078125 -0.28125 L 6.34375 -2.25 C 6.34375 -2.359375 6.25 -2.421875 6.171875 -2.421875 C 6.015625 -2.421875 6 -2.328125 5.96875 -2.125 C 5.796875 -1.3125 5.03125 -0.34375 3.609375 -0.34375 L 2.1875 -0.34375 Z M 1.125 -6.484375 L 1.65625 -6.484375 L 1.65625 -6.46875 C 1.390625 -6.3125 1.203125 -6.140625 1.078125 -6.03125 Z M 4.53125 -6.484375 L 5.546875 -6.484375 L 1.78125 -0.34375 L 0.765625 -0.34375 Z M 5.046875 -0.359375 C 5.328125 -0.515625 5.59375 -0.734375 5.828125 -1.015625 C 5.796875 -0.8125 5.78125 -0.703125 5.734375 -0.34375 L 5.046875 -0.34375 Z M 5.046875 -0.359375 "
           id="path2330" />
      </symbol>
      <symbol
         overflow="visible"
         id="symbol328">
        <path
           style="stroke:none;"
           d=""
           id="path3838" />
      </symbol>
      <symbol
         overflow="visible"
         id="symbol8532">
        <path
           style="stroke:none;"
           d="M 1.078125 -3.890625 C 1.4375 -3.796875 1.640625 -3.796875 1.75 -3.796875 C 2.671875 -3.796875 3.21875 -4.421875 3.21875 -4.53125 C 3.21875 -4.609375 3.171875 -4.625 3.140625 -4.625 C 3.125 -4.625 3.109375 -4.625 3.078125 -4.609375 C 2.90625 -4.546875 2.546875 -4.40625 2.03125 -4.40625 C 1.828125 -4.40625 1.46875 -4.421875 1.015625 -4.59375 C 0.9375 -4.625 0.921875 -4.625 0.921875 -4.625 C 0.828125 -4.625 0.828125 -4.546875 0.828125 -4.4375 L 0.828125 -2.390625 C 0.828125 -2.265625 0.828125 -2.1875 0.9375 -2.1875 C 1 -2.1875 1.015625 -2.1875 1.078125 -2.28125 C 1.375 -2.65625 1.8125 -2.71875 2.046875 -2.71875 C 2.46875 -2.71875 2.65625 -2.390625 2.6875 -2.328125 C 2.8125 -2.09375 2.859375 -1.828125 2.859375 -1.421875 C 2.859375 -1.21875 2.859375 -0.8125 2.640625 -0.5 C 2.46875 -0.25 2.171875 -0.078125 1.828125 -0.078125 C 1.375 -0.078125 0.90625 -0.328125 0.734375 -0.796875 C 1 -0.78125 1.140625 -0.953125 1.140625 -1.140625 C 1.140625 -1.4375 0.875 -1.484375 0.78125 -1.484375 C 0.78125 -1.484375 0.4375 -1.484375 0.4375 -1.109375 C 0.4375 -0.484375 1.015625 0.140625 1.84375 0.140625 C 2.734375 0.140625 3.515625 -0.515625 3.515625 -1.40625 C 3.515625 -2.1875 2.921875 -2.90625 2.0625 -2.90625 C 1.75 -2.90625 1.390625 -2.84375 1.078125 -2.578125 Z M 1.078125 -3.890625 "
           id="path5973" />
      </symbol>
      <symbol
         overflow="visible"
         id="symbol7657">
        <path
           style="stroke:none;"
           d="M 3.21875 -1.578125 L 5.359375 -1.578125 C 5.453125 -1.578125 5.609375 -1.578125 5.609375 -1.734375 C 5.609375 -1.921875 5.453125 -1.921875 5.359375 -1.921875 L 3.21875 -1.921875 L 3.21875 -4.0625 C 3.21875 -4.140625 3.21875 -4.3125 3.0625 -4.3125 C 2.890625 -4.3125 2.890625 -4.15625 2.890625 -4.0625 L 2.890625 -1.921875 L 0.75 -1.921875 C 0.65625 -1.921875 0.484375 -1.921875 0.484375 -1.75 C 0.484375 -1.578125 0.640625 -1.578125 0.75 -1.578125 L 2.890625 -1.578125 L 2.890625 0.5625 C 2.890625 0.65625 2.890625 0.828125 3.046875 0.828125 C 3.21875 0.828125 3.21875 0.65625 3.21875 0.5625 Z M 3.21875 -1.578125 "
           id="path8708" />
      </symbol>
      <symbol
         overflow="visible"
         id="symbol5170">
        <path
           style="stroke:none;"
           d="M 3.6875 -1.140625 L 3.6875 -1.390625 L 2.90625 -1.390625 L 2.90625 -4.5 C 2.90625 -4.640625 2.90625 -4.703125 2.765625 -4.703125 C 2.671875 -4.703125 2.640625 -4.703125 2.578125 -4.59375 L 0.265625 -1.390625 L 0.265625 -1.140625 L 2.328125 -1.140625 L 2.328125 -0.578125 C 2.328125 -0.328125 2.328125 -0.25 1.75 -0.25 L 1.5625 -0.25 L 1.5625 0 C 1.921875 -0.015625 2.359375 -0.03125 2.609375 -0.03125 C 2.875 -0.03125 3.3125 -0.015625 3.671875 0 L 3.671875 -0.25 L 3.484375 -0.25 C 2.90625 -0.25 2.90625 -0.328125 2.90625 -0.578125 L 2.90625 -1.140625 Z M 2.375 -3.9375 L 2.375 -1.390625 L 0.53125 -1.390625 Z M 2.375 -3.9375 "
           id="path3535" />
      </symbol>
      <symbol
         overflow="visible"
         id="symbol8630">
        <path
           style="stroke:none;"
           d=""
           id="path6367" />
      </symbol>
      <symbol
         overflow="visible"
         id="symbol332">
        <path
           style="stroke:none;"
           d="M 2.546875 2.5 L 2.546875 2.09375 L 1.578125 2.09375 L 1.578125 -7.078125 L 2.546875 -7.078125 L 2.546875 -7.484375 L 1.171875 -7.484375 L 1.171875 2.5 Z M 2.546875 2.5 "
           id="path4598" />
      </symbol>
      <symbol
         overflow="visible"
         id="symbol1183">
        <path
           style="stroke:none;"
           d="M 1.578125 -7.484375 L 0.21875 -7.484375 L 0.21875 -7.078125 L 1.1875 -7.078125 L 1.1875 2.09375 L 0.21875 2.09375 L 0.21875 2.5 L 1.578125 2.5 Z M 1.578125 -7.484375 "
           id="path2076" />
      </symbol>
      <symbol
         overflow="visible"
         id="symbol4096">
        <path
           style="stroke:none;"
           d=""
           id="path33" />
      </symbol>
      <symbol
         overflow="visible"
         id="symbol2809">
        <path
           style="stroke:none;"
           d="M 3.328125 -3.015625 C 3.390625 -3.265625 3.625 -4.1875 4.3125 -4.1875 C 4.359375 -4.1875 4.609375 -4.1875 4.8125 -4.0625 C 4.53125 -4 4.34375 -3.765625 4.34375 -3.515625 C 4.34375 -3.359375 4.453125 -3.171875 4.71875 -3.171875 C 4.9375 -3.171875 5.25 -3.34375 5.25 -3.75 C 5.25 -4.265625 4.671875 -4.40625 4.328125 -4.40625 C 3.75 -4.40625 3.40625 -3.875 3.28125 -3.65625 C 3.03125 -4.3125 2.5 -4.40625 2.203125 -4.40625 C 1.171875 -4.40625 0.59375 -3.125 0.59375 -2.875 C 0.59375 -2.765625 0.703125 -2.765625 0.71875 -2.765625 C 0.796875 -2.765625 0.828125 -2.796875 0.84375 -2.875 C 1.1875 -3.9375 1.84375 -4.1875 2.1875 -4.1875 C 2.375 -4.1875 2.71875 -4.09375 2.71875 -3.515625 C 2.71875 -3.203125 2.546875 -2.546875 2.1875 -1.140625 C 2.03125 -0.53125 1.671875 -0.109375 1.234375 -0.109375 C 1.171875 -0.109375 0.953125 -0.109375 0.734375 -0.234375 C 0.984375 -0.296875 1.203125 -0.5 1.203125 -0.78125 C 1.203125 -1.046875 0.984375 -1.125 0.84375 -1.125 C 0.53125 -1.125 0.296875 -0.875 0.296875 -0.546875 C 0.296875 -0.09375 0.78125 0.109375 1.21875 0.109375 C 1.890625 0.109375 2.25 -0.59375 2.265625 -0.640625 C 2.390625 -0.28125 2.75 0.109375 3.34375 0.109375 C 4.375 0.109375 4.9375 -1.171875 4.9375 -1.421875 C 4.9375 -1.53125 4.859375 -1.53125 4.828125 -1.53125 C 4.734375 -1.53125 4.71875 -1.484375 4.6875 -1.421875 C 4.359375 -0.34375 3.6875 -0.109375 3.375 -0.109375 C 2.984375 -0.109375 2.828125 -0.421875 2.828125 -0.765625 C 2.828125 -0.984375 2.875 -1.203125 2.984375 -1.640625 Z M 3.328125 -3.015625 "
           id="path6482" />
      </symbol>
      <symbol
         overflow="visible"
         id="symbol7190">
        <path
           style="stroke:none;"
           d=""
           id="path4938" />
      </symbol>
      <symbol
         overflow="visible"
         id="symbol2293">
        <path
           style="stroke:none;"
           d="M 1.734375 -0.734375 C 1.671875 -0.5 1.4375 -0.125 1.078125 -0.125 C 1.0625 -0.125 0.84375 -0.125 0.703125 -0.21875 C 0.984375 -0.3125 1.015625 -0.5625 1.015625 -0.609375 C 1.015625 -0.765625 0.890625 -0.859375 0.734375 -0.859375 C 0.53125 -0.859375 0.328125 -0.703125 0.328125 -0.4375 C 0.328125 -0.09375 0.71875 0.0625 1.0625 0.0625 C 1.390625 0.0625 1.671875 -0.125 1.84375 -0.421875 C 2.015625 -0.0625 2.390625 0.0625 2.671875 0.0625 C 3.484375 0.0625 3.90625 -0.796875 3.90625 -1 C 3.90625 -1.09375 3.8125 -1.09375 3.796875 -1.09375 C 3.6875 -1.09375 3.6875 -1.046875 3.65625 -0.96875 C 3.515625 -0.484375 3.09375 -0.125 2.703125 -0.125 C 2.421875 -0.125 2.28125 -0.3125 2.28125 -0.578125 C 2.28125 -0.765625 2.453125 -1.390625 2.640625 -2.171875 C 2.78125 -2.703125 3.09375 -2.875 3.328125 -2.875 C 3.34375 -2.875 3.546875 -2.875 3.703125 -2.78125 C 3.484375 -2.71875 3.390625 -2.515625 3.390625 -2.390625 C 3.390625 -2.25 3.515625 -2.140625 3.671875 -2.140625 C 3.828125 -2.140625 4.0625 -2.265625 4.0625 -2.5625 C 4.0625 -2.953125 3.609375 -3.078125 3.34375 -3.078125 C 2.984375 -3.078125 2.703125 -2.84375 2.5625 -2.578125 C 2.4375 -2.859375 2.109375 -3.078125 1.71875 -3.078125 C 0.9375 -3.078125 0.5 -2.21875 0.5 -2 C 0.5 -1.921875 0.59375 -1.921875 0.609375 -1.921875 C 0.703125 -1.921875 0.703125 -1.9375 0.75 -2.03125 C 0.921875 -2.578125 1.359375 -2.875 1.703125 -2.875 C 1.9375 -2.875 2.125 -2.75 2.125 -2.421875 C 2.125 -2.28125 2.03125 -1.9375 1.96875 -1.6875 Z M 1.734375 -0.734375 "
           id="path1364" />
      </symbol>
      <symbol
         overflow="visible"
         id="symbol2488">
        <path
           style="stroke:none;"
           d=""
           id="path2434" />
      </symbol>
      <symbol
         overflow="visible"
         id="symbol9554">
        <path
           style="stroke:none;"
           d="M 2.9375 -0.96875 L 2.71875 -0.96875 C 2.71875 -0.875 2.65625 -0.5625 2.578125 -0.515625 C 2.546875 -0.484375 2.125 -0.484375 2.046875 -0.484375 L 1.078125 -0.484375 C 1.40625 -0.71875 1.765625 -1 2.0625 -1.203125 C 2.515625 -1.515625 2.9375 -1.796875 2.9375 -2.328125 C 2.9375 -2.96875 2.328125 -3.3125 1.625 -3.3125 C 0.953125 -3.3125 0.453125 -2.9375 0.453125 -2.4375 C 0.453125 -2.1875 0.671875 -2.140625 0.75 -2.140625 C 0.875 -2.140625 1.03125 -2.234375 1.03125 -2.4375 C 1.03125 -2.609375 0.90625 -2.71875 0.75 -2.71875 C 0.890625 -2.953125 1.1875 -3.09375 1.515625 -3.09375 C 2 -3.09375 2.40625 -2.8125 2.40625 -2.328125 C 2.40625 -1.90625 2.109375 -1.578125 1.734375 -1.265625 L 0.515625 -0.234375 C 0.46875 -0.1875 0.453125 -0.1875 0.453125 -0.15625 L 0.453125 0 L 2.765625 0 Z M 2.9375 -0.96875 "
           id="path8561" />
      </symbol>
    </g>
  </defs>
  <sodipodi:namedview
     id="base"
     pagecolor="#ffffff"
     bordercolor="#666666"
     borderopacity="1.0"
     inkscape:pageopacity="0.0"
     inkscape:pageshadow="2"
     inkscape:zoom="0.98994949"
     inkscape:cx="277.31237"
     inkscape:cy="260.2199"
     inkscape:document-units="mm"
     inkscape:current-layer="g4856"
     inkscape:document-rotation="0"
     showgrid="false" />
  <metadata
     id="metadata1068">
    <rdf:RDF>
      <cc:Work
         rdf:about="">
        <dc:format>image/svg+xml</dc:format>
        <dc:type
           rdf:resource="http://purl.org/dc/dcmitype/StillImage" />
        <dc:title></dc:title>
      </cc:Work>
    </rdf:RDF>
  </metadata>
  <g
     inkscape:label="Ebene 1"
     inkscape:groupmode="layer"
     id="layer1">
    <g
       inkscape:label=""
       transform="translate(-50.295706,-32.242202)"
       id="g1686">
      <g
         id="g4856"
         transform="matrix(3.187006,0,0,3.187006,-201.65563,-162.8852)">
        <rect
           style="fill:#ffffff;fill-opacity:1;stroke:none;stroke-width:0.0517727"
           id="rect3727"
           width="61.563816"
           height="36.961472"
           x="80.126099"
           y="67.900536" />
        <g
           style="fill:#6dc381;fill-opacity:1"
           id="g8790"
           inkscape:export-xdpi="300"
           inkscape:export-ydpi="300">
          <use
             xlink:href="#symbol8924"
             x="91.925003"
             y="81.962997"
             id="use7182"
             width="100%"
             height="100%"
             style="fill:#6dc381" />
        </g>
        <g
           style="fill:#6dc381;fill-opacity:1"
           id="g2920"
           inkscape:export-xdpi="300"
           inkscape:export-ydpi="300">
          <use
             xlink:href="#symbol8532"
             x="98.567001"
             y="83.457001"
             id="use6"
             width="100%"
             height="100%"
             style="fill:#6dc381" />
        </g>
        <g
           style="fill:#5a9cfe;fill-opacity:1"
           id="g542"
           inkscape:export-xdpi="300"
           inkscape:export-ydpi="300">
          <use
             xlink:href="#symbol332"
             x="103.036"
             y="81.962997"
             id="use4865"
             width="100%"
             height="100%"
             style="fill:#5a9cfe" />
        </g>
        <g
           style="fill:#5a9cfe;fill-opacity:1"
           id="g1526"
           inkscape:export-xdpi="300"
           inkscape:export-ydpi="300">
          <use
             xlink:href="#symbol2809"
             x="105.804"
             y="81.962997"
             id="use6235"
             width="100%"
             height="100%"
             style="fill:#5a9cfe" />
        </g>
        <g
           style="fill:#5a9cfe;fill-opacity:1"
           id="g1549"
           inkscape:export-xdpi="300"
           inkscape:export-ydpi="300">
          <use
             xlink:href="#symbol1183"
             x="111.498"
             y="81.962997"
             id="use7686"
             width="100%"
             height="100%"
             style="fill:#5a9cfe" />
        </g>
        <g
           style="fill:#dc3545;fill-opacity:1"
           id="g5168"
           inkscape:export-xdpi="300"
           inkscape:export-ydpi="300">
          <use
             xlink:href="#symbol2293"
             x="114.265"
             y="83.734001"
             id="use9294"
             width="100%"
             height="100%"
             style="fill:#dc3545" />
        </g>
        <g
           style="fill:#dc3545;fill-opacity:1"
           id="g64"
           inkscape:export-xdpi="300"
           inkscape:export-ydpi="300">
          <use
             xlink:href="#symbol9554"
             x="118.783"
             y="81.740997"
             id="use3562"
             width="100%"
             height="100%"
             style="fill:#dc3545" />
        </g>
        <g
           style="fill:#dc3545;fill-opacity:1"
           id="g1177"
           inkscape:export-xdpi="300"
           inkscape:export-ydpi="300">
          <use
             xlink:href="#symbol7657"
             x="122.671"
             y="83.734001"
             id="use7122"
             width="100%"
             height="100%"
             style="fill:#dc3545" />
          <use
             xlink:href="#symbol5170"
             x="128.78702"
             y="83.734001"
             id="use4643"
             width="100%"
             height="100%"
             style="fill:#dc3545" />
        </g>
        <text
           xml:space="preserve"
           style="font-style:normal;font-variant:normal;font-weight:normal;font-stretch:normal;font-size:3.32078px;line-height:0%;font-family:'Latin Modern Roman';-inkscape-font-specification:'Latin Modern Roman, Normal';font-variant-ligatures:normal;font-variant-caps:normal;font-variant-numeric:normal;font-feature-settings:normal;text-align:start;letter-spacing:0px;word-spacing:0px;writing-mode:lr-tb;text-anchor:start;fill:#000000;fill-opacity:1;stroke:none;stroke-width:0.0830194px;stroke-linecap:butt;stroke-linejoin:miter;stroke-opacity:1"
           x="98.949959"
           y="99.678825"
           id="text3653"
           inkscape:export-xdpi="300"
           inkscape:export-ydpi="300"><tspan
             sodipodi:role="line"
             id="tspan3651"
             x="98.949959"
             y="99.678825"
             style="stroke-width:0.0830194px">polynomial ring</tspan></text>
        <text
           xml:space="preserve"
           style="font-style:normal;font-variant:normal;font-weight:normal;font-stretch:normal;font-size:3.32078px;line-height:0%;font-family:'Latin Modern Roman';-inkscape-font-specification:'Latin Modern Roman, Normal';font-variant-ligatures:normal;font-variant-caps:normal;font-variant-numeric:normal;font-feature-settings:normal;text-align:start;letter-spacing:0px;word-spacing:0px;writing-mode:lr-tb;text-anchor:start;fill:#000000;fill-opacity:1;stroke:none;stroke-width:0.0830194px;stroke-linecap:butt;stroke-linejoin:miter;stroke-opacity:1"
           x="117.89869"
           y="91.410065"
           id="text3657"
           inkscape:export-xdpi="300"
           inkscape:export-ydpi="300"><tspan
             sodipodi:role="line"
             id="tspan3655"
             x="117.89869"
             y="91.410065"
             style="stroke-width:0.0830194px">everything</tspan></text>
        <text
           xml:space="preserve"
           style="font-style:normal;font-variant:normal;font-weight:normal;font-stretch:normal;font-size:3.32078px;line-height:0%;font-family:'Latin Modern Roman';-inkscape-font-specification:'Latin Modern Roman, Normal';font-variant-ligatures:normal;font-variant-caps:normal;font-variant-numeric:normal;font-feature-settings:normal;text-align:start;letter-spacing:0px;word-spacing:0px;writing-mode:lr-tb;text-anchor:start;fill:#000000;fill-opacity:1;stroke:none;stroke-width:0.0830194px;stroke-linecap:butt;stroke-linejoin:miter;stroke-opacity:1"
           x="83.644371"
           y="90.553444"
           id="text3709"
           inkscape:export-xdpi="300"
           inkscape:export-ydpi="300"><tspan
             sodipodi:role="line"
             id="tspan3707"
             x="83.644371"
             y="90.553444"
             style="stroke-width:0.0830194px">all numbers</tspan></text>
        <text
           xml:space="preserve"
           style="font-style:normal;font-variant:normal;font-weight:normal;font-stretch:normal;font-size:3.32078px;line-height:0%;font-family:'Latin Modern Roman';-inkscape-font-specification:'Latin Modern Roman, Normal';font-variant-ligatures:normal;font-variant-caps:normal;font-variant-numeric:normal;font-feature-settings:normal;text-align:start;letter-spacing:0px;word-spacing:0px;writing-mode:lr-tb;text-anchor:start;fill:#000000;fill-opacity:1;stroke:none;stroke-width:0.0830194px;stroke-linecap:butt;stroke-linejoin:miter;stroke-opacity:1"
           x="83.644371"
           y="93.774063"
           id="text3713"
           inkscape:export-xdpi="300"
           inkscape:export-ydpi="300"><tspan
             sodipodi:role="line"
             id="tspan3711"
             x="83.644371"
             y="93.774063"
             style="stroke-width:0.0830194px">mod 5</tspan></text>
        <text
           xml:space="preserve"
           style="font-style:normal;font-variant:normal;font-weight:normal;font-stretch:normal;font-size:3.32078px;line-height:0%;font-family:'Latin Modern Roman';-inkscape-font-specification:'Latin Modern Roman, Normal';font-variant-ligatures:normal;font-variant-caps:normal;font-variant-numeric:normal;font-feature-settings:normal;text-align:start;letter-spacing:0px;word-spacing:0px;writing-mode:lr-tb;text-anchor:start;fill:#000000;fill-opacity:1;stroke:none;stroke-width:0.0830194px;stroke-linecap:butt;stroke-linejoin:miter;stroke-opacity:1"
           x="117.88541"
           y="94.811394"
           id="text3719"
           inkscape:export-xdpi="300"
           inkscape:export-ydpi="300"><tspan
             sodipodi:role="line"
             id="tspan3717"
             x="117.88541"
             y="94.811394"
             style="stroke-width:0.0830194px">mod x² + 4</tspan></text>
        <path
           style="fill:none;fill-rule:evenodd;stroke:#000000;stroke-width:0.0830194px;stroke-linecap:butt;stroke-linejoin:miter;stroke-opacity:1"
           d="m 93.941173,87.41637 1.72082,-3.019421"
           id="path3721"
           inkscape:export-xdpi="300"
           inkscape:export-ydpi="300" />
        <path
           style="fill:none;fill-rule:evenodd;stroke:#000000;stroke-width:0.0743445px;stroke-linecap:butt;stroke-linejoin:miter;stroke-opacity:1"
           d="m 109.86204,96.41219 -0.61369,-9.919063"
           id="path3723"
           inkscape:export-xdpi="300"
           inkscape:export-ydpi="300" />
        <path
           style="fill:none;fill-rule:evenodd;stroke:#000000;stroke-width:0.0830194px;stroke-linecap:butt;stroke-linejoin:miter;stroke-opacity:1"
           d="m 125.43706,88.216443 -1.30855,-2.960615"
           id="path3725"
           inkscape:connector-type="polyline"
           inkscape:connector-curvature="0"
           inkscape:export-xdpi="300"
           inkscape:export-ydpi="300" />
      </g>
    </g>
  </g>
</svg>
